<svg width="28" height="28" viewBox="0 0 28 28" fill="none" xmlns="http://www.w3.org/2000/svg">
<path d="M19.8958 17.5833H18.6779L18.2463 17.1671C19.7571 15.4096 20.6667 13.1279 20.6667 10.6458C20.6667 5.11125 16.1804 0.625 10.6458 0.625C5.11125 0.625 0.625 5.11125 0.625 10.6458C0.625 16.1804 5.11125 20.6667 10.6458 20.6667C13.1279 20.6667 15.4096 19.7571 17.1671 18.2463L17.5833 18.6779V19.8958L25.2917 27.5887L27.5887 25.2917L19.8958 17.5833ZM10.6458 17.5833C6.80708 17.5833 3.70833 14.4846 3.70833 10.6458C3.70833 6.80708 6.80708 3.70833 10.6458 3.70833C14.4846 3.70833 17.5833 6.80708 17.5833 10.6458C17.5833 14.4846 14.4846 17.5833 10.6458 17.5833Z" fill="#C4C4C4"/>
</svg>
