<svg width="31" height="32" viewBox="0 0 31 32" fill="none" xmlns="http://www.w3.org/2000/svg">
<path d="M0.0612793 3.67325V25.1024L7.40842 19.592C7.93774 19.1935 8.58263 18.9786 9.2452 18.9798H21.4904C23.1811 18.9798 24.5517 17.6092 24.5517 15.9185V3.67325C24.5517 1.98253 23.1811 0.611938 21.4904 0.611938H3.12259C1.43187 0.611938 0.0612793 1.98253 0.0612793 3.67325ZM3.12259 18.9798V3.67325H21.4904V15.9185H8.22579C7.56312 15.9167 6.91806 16.1317 6.389 16.5307L3.12259 18.9798Z" fill="#11121F"/>
<path d="M30.6744 31.225V11.3265C30.6744 9.6358 29.3038 8.26521 27.613 8.26521V25.1024L24.3466 22.6534C23.8176 22.2543 23.1725 22.0393 22.5098 22.0411H7.71455C7.71455 23.7318 9.08514 25.1024 10.7759 25.1024H21.4904C22.153 25.1012 22.7979 25.3161 23.3272 25.7147L30.6744 31.225Z" fill="#11121F"/>
</svg>
