<svg width="29" height="32" viewBox="0 0 29 32" fill="none" xmlns="http://www.w3.org/2000/svg">
<path d="M6.71465 14.7622H9.77596V17.8235H6.71465V14.7622ZM28.1438 7.10894V28.5381C28.1438 30.2218 26.7662 31.5994 25.0825 31.5994H3.65335C1.95432 31.5994 0.592041 30.2218 0.592041 28.5381L0.607348 7.10894C0.607348 5.42522 1.95432 4.04764 3.65335 4.04764H5.184V0.986328H8.24531V4.04764H20.4905V0.986328H23.5518V4.04764H25.0825C26.7662 4.04764 28.1438 5.42522 28.1438 7.10894ZM3.65335 10.1702H25.0825V7.10894H3.65335V10.1702ZM25.0825 28.5381V13.2316H3.65335V28.5381H25.0825ZM18.9599 17.8235H22.0212V14.7622H18.9599V17.8235ZM12.8373 17.8235H15.8986V14.7622H12.8373V17.8235Z" fill="#11121F"/>
</svg>
