<?xml version="1.0" standalone="no"?>
<!DOCTYPE svg PUBLIC "-//W3C//DTD SVG 20010904//EN"
 "http://www.w3.org/TR/2001/REC-SVG-20010904/DTD/svg10.dtd">
<svg version="1.0" xmlns="http://www.w3.org/2000/svg"
 width="650.000000pt" height="120.000000pt" viewBox="0 0 650.000000 120.000000"
 preserveAspectRatio="xMidYMid meet">

<g transform="translate(0.000000,120.000000) scale(0.100000,-0.100000)"
fill="#000000" stroke="none">
<path d="M2575 1189 c-126 -19 -239 -75 -329 -163 -113 -110 -165 -229 -173
-396 -9 -185 44 -327 167 -450 118 -119 258 -173 440 -173 185 0 317 51 436
168 82 80 147 199 165 300 18 95 6 257 -23 337 -65 175 -222 315 -403 362 -79
20 -205 27 -280 15z m240 -81 c178 -37 332 -189 380 -373 19 -76 19 -204 0
-280 -23 -87 -62 -152 -135 -225 -101 -102 -225 -151 -378 -151 -155 0 -268
42 -372 137 -68 64 -131 176 -150 271 -16 76 -7 233 17 293 103 262 350 389
638 328z"/>
<path d="M0 1155 l0 -35 375 0 375 0 0 35 0 35 -375 0 -375 0 0 -35z"/>
<path d="M1140 600 l0 -590 380 0 380 0 0 35 0 35 -340 0 -340 0 0 555 0 555
-40 0 -40 0 0 -590z"/>
<path d="M3500 1188 c0 -2 89 -266 199 -588 l199 -585 44 -3 44 -3 184 530
c101 292 186 528 189 525 3 -3 87 -240 187 -527 l181 -522 44 -3 44 -3 195
576 c107 317 196 583 198 591 3 10 -7 14 -35 14 l-38 0 -180 -530 c-99 -292
-183 -530 -186 -530 -4 0 -89 239 -189 530 l-183 531 -40 -3 -40 -3 -182 -523
c-100 -288 -185 -524 -189 -525 -5 -1 -88 234 -185 523 l-178 525 -41 3 c-23
2 -42 2 -42 0z"/>
<path d="M5540 1155 l0 -35 283 0 c311 0 365 -7 440 -58 110 -74 120 -258 19
-347 -15 -14 -52 -35 -82 -47 -52 -21 -73 -22 -357 -26 l-303 -4 0 -33 0 -34
338 -3 c321 -3 340 -4 393 -26 66 -27 113 -72 134 -131 32 -91 13 -183 -50
-247 -74 -74 -94 -77 -477 -82 l-338 -3 0 -36 0 -35 333 4 c373 5 408 10 506
76 43 29 62 50 86 96 26 52 30 70 29 140 0 63 -5 91 -23 129 -31 63 -100 123
-167 144 -30 9 -54 20 -54 23 0 4 18 15 40 25 48 22 103 80 126 132 9 23 16
67 16 109 0 121 -50 203 -155 253 -92 43 -165 51 -465 51 l-272 0 0 -35z"/>
<path d="M0 305 l0 -295 40 0 40 0 0 260 0 260 335 0 335 0 0 35 0 35 -375 0
-375 0 0 -295z"/>
</g>
</svg>
