<svg width="31" height="29" viewBox="0 0 31 29" fill="none" xmlns="http://www.w3.org/2000/svg">
<path d="M10.7759 0.600708C6.54907 0.600708 3.12259 4.02719 3.12259 8.25398C3.12259 12.4808 6.54907 15.9072 10.7759 15.9072C15.0026 15.9072 18.4291 12.4808 18.4291 8.25398C18.4291 4.02719 15.0026 0.600708 10.7759 0.600708ZM6.18389 8.25398C6.18389 5.71791 8.23978 3.66201 10.7759 3.66201C13.3119 3.66201 15.3678 5.71791 15.3678 8.25398C15.3678 10.79 13.3119 12.8459 10.7759 12.8459C8.23978 12.8459 6.18389 10.79 6.18389 8.25398Z" fill="#11121F"/>
<path d="M22.8809 8.58808C22.4503 8.36853 21.9738 8.25407 21.4904 8.25407V5.19276C22.4572 5.19276 23.4102 5.4216 24.2715 5.86072C24.3663 5.90909 24.4598 5.95985 24.5517 6.01294C25.2947 6.44189 25.9403 7.02285 26.4456 7.7191C27.0134 8.50151 27.3879 9.40728 27.5384 10.3622C27.6889 11.3172 27.6111 12.2943 27.3114 13.2134C27.0117 14.1325 26.4986 14.9676 25.8141 15.6503C25.1296 16.333 24.2932 16.8439 23.3733 17.1412C22.5547 17.4058 21.6907 17.4945 20.8377 17.403C20.7321 17.3917 20.6267 17.3776 20.5216 17.3608C19.5676 17.2079 18.6634 16.8314 17.8829 16.2622L17.8813 16.261L19.6859 13.7882C20.0763 14.0731 20.5287 14.2614 21.006 14.3379C21.4833 14.4144 21.9719 14.3768 22.4318 14.2282C22.8918 14.0795 23.31 13.8241 23.6522 13.4827C23.9944 13.1414 24.251 12.7238 24.4008 12.2643C24.5507 11.8048 24.5896 11.3163 24.5143 10.8388C24.4391 10.3613 24.2519 9.90844 23.9679 9.51724C23.684 9.12605 23.3115 8.80764 22.8809 8.58808Z" fill="#11121F"/>
<path d="M27.6101 28.1525C27.6101 27.3488 27.4518 26.553 27.1443 25.8106C26.8368 25.0681 26.386 24.3934 25.8177 23.8252C25.2495 23.2569 24.5748 22.8061 23.8323 22.4986C23.0899 22.1911 22.2941 22.0328 21.4904 22.0328V18.9685C22.5345 18.9685 23.5696 19.1466 24.5517 19.4938C24.7041 19.5477 24.8553 19.6056 25.005 19.6676C26.1192 20.1292 27.1316 20.8057 27.9844 21.6585C28.8373 22.5113 29.5137 23.5237 29.9753 24.6379C30.0373 24.7876 30.0952 24.9388 30.1491 25.0912C30.4963 26.0733 30.6744 27.1084 30.6744 28.1525H27.6101Z" fill="#11121F"/>
<path d="M21.4904 28.1525H18.4291C18.4291 23.9257 15.0026 20.4992 10.7759 20.4992C6.54907 20.4992 3.12259 23.9257 3.12259 28.1525H0.0612793C0.0612793 22.235 4.85836 17.4379 10.7759 17.4379C16.6934 17.4379 21.4904 22.235 21.4904 28.1525Z" fill="#11121F"/>
</svg>
