<svg width="25" height="30" viewBox="0 0 25 30" fill="none" xmlns="http://www.w3.org/2000/svg">
<path d="M4.71579 8.2467C4.71579 4.01942 8.14268 0.592529 12.37 0.592529C16.5972 0.592529 20.0241 4.01942 20.0241 8.2467C20.0241 12.474 16.5972 15.9009 12.37 15.9009C8.14268 15.9009 4.71579 12.474 4.71579 8.2467ZM12.37 12.8392C14.9063 12.8392 16.9625 10.7831 16.9625 8.2467C16.9625 5.71033 14.9063 3.6542 12.37 3.6542C9.83359 3.6542 7.77746 5.71033 7.77746 8.2467C7.77746 10.7831 9.83359 12.8392 12.37 12.8392Z" fill="#11121F"/>
<path d="M3.71026 21.0187C1.41356 23.3154 0.123291 26.4303 0.123291 29.6784H3.18496C3.18496 27.2424 4.15266 24.9061 5.87518 23.1836C7.5977 21.4611 9.93394 20.4934 12.37 20.4934C14.806 20.4934 17.1422 21.4611 18.8647 23.1836C20.5873 24.9061 21.555 27.2424 21.555 29.6784H24.6166C24.6166 26.4303 23.3264 23.3154 21.0297 21.0187C18.733 18.722 15.618 17.4317 12.37 17.4317C9.12194 17.4317 6.00695 18.722 3.71026 21.0187Z" fill="#11121F"/>
</svg>
