<svg width="31" height="31" viewBox="0 0 31 31" fill="none" xmlns="http://www.w3.org/2000/svg">
<path d="M18.1562 30.6784H12.584C11.8647 30.6784 11.2423 30.1779 11.0883 29.4752L10.4653 26.5911C9.63413 26.227 8.84602 25.7715 8.11547 25.2333L5.30333 26.1288C4.61751 26.3475 3.87198 26.0588 3.51225 25.4353L0.72001 20.6117C0.364225 19.9879 0.4868 19.201 1.01546 18.715L3.1969 16.7249C3.0977 15.8234 3.0977 14.9137 3.1969 14.0123L1.01546 12.0268C0.486022 11.5405 0.363398 10.7527 0.72001 10.1285L3.50613 5.30181C3.86585 4.6783 4.61139 4.38964 5.2972 4.60834L8.10934 5.50388C8.48296 5.22704 8.8719 4.97149 9.27431 4.73846C9.6606 4.52062 10.0581 4.32337 10.4653 4.14756L11.0899 1.26653C11.2431 0.563833 11.8648 0.0625244 12.584 0.0617676H18.1562C18.8754 0.0625244 19.4971 0.563833 19.6503 1.26653L20.281 4.14909C20.7108 4.33818 21.1294 4.55182 21.5348 4.78898C21.9128 5.0076 22.2782 5.2473 22.6293 5.50694L25.443 4.6114C26.1283 4.39352 26.8729 4.68207 27.2325 5.30487L30.0186 10.1316C30.3744 10.7554 30.2518 11.5423 29.7232 12.0283L27.5417 14.0184C27.6409 14.9199 27.6409 15.8295 27.5417 16.731L29.7232 18.7211C30.2518 19.2071 30.3744 19.994 30.0186 20.6178L27.2325 25.4445C26.8729 26.0673 26.1283 26.3559 25.443 26.138L22.6293 25.2424C22.2733 25.5047 21.9033 25.7474 21.521 25.9696C21.1196 26.2021 20.7057 26.4122 20.281 26.5988L19.6503 29.4752C19.4965 30.1773 18.8749 30.6778 18.1562 30.6784ZM8.66504 21.844L9.92032 22.7625C10.2033 22.9709 10.4982 23.1626 10.8036 23.3366C11.091 23.503 11.3868 23.6542 11.69 23.7897L13.1182 24.4158L13.8178 27.6168H16.9254L17.625 24.4143L19.0533 23.7882C19.6768 23.5132 20.2686 23.1713 20.8183 22.7686L22.0751 21.8501L25.1996 22.8452L26.7534 20.154L24.3301 17.945L24.5015 16.3958C24.5768 15.7182 24.5768 15.0343 24.5015 14.3567L24.3301 12.8075L26.7549 10.5939L25.1996 7.90117L22.0751 8.89621L20.8183 7.97771C20.2684 7.57312 19.6767 7.22875 19.0533 6.95052L17.625 6.32441L16.9254 3.12343H13.8178L13.1152 6.32594L11.69 6.95052C11.3866 7.08377 11.0907 7.2335 10.8036 7.39905C10.5001 7.57254 10.2067 7.76318 9.92491 7.97005L8.6681 8.88855L5.5452 7.89351L3.98834 10.5939L6.41165 12.7998L6.2402 14.3506C6.16488 15.0282 6.16488 15.712 6.2402 16.3896L6.41165 17.9388L3.98834 20.1478L5.54214 22.839L8.66504 21.844ZM15.364 21.4934C11.9821 21.4934 9.24063 18.7519 9.24063 15.3701C9.24063 11.9883 11.9821 9.24677 15.364 9.24677C18.7458 9.24677 21.4873 11.9883 21.4873 15.3701C21.4831 18.7502 18.744 21.4892 15.364 21.4934ZM15.364 12.3084C13.6914 12.3101 12.3297 13.6538 12.3057 15.3262C12.2817 16.9987 13.6044 18.3808 15.2762 18.4304C16.9481 18.48 18.3504 17.1788 18.4256 15.5079V16.1202V15.3701C18.4256 13.6792 17.0549 12.3084 15.364 12.3084Z" fill="#11121F"/>
</svg>
