<svg width="31" height="32" viewBox="0 0 31 32" fill="none" xmlns="http://www.w3.org/2000/svg">
<path d="M15.1765 11.7529C14.2255 11.7529 13.4545 10.9534 13.4545 9.96711C13.4545 8.98086 14.2255 8.18134 15.1765 8.18134C16.1275 8.18134 16.8985 8.98086 16.8985 9.96711C16.8985 10.9534 16.1275 11.7529 15.1765 11.7529Z" fill="#11121F"/>
<path d="M26.0824 18.8959H12.3065L15.7505 14.1339L16.8985 15.3244L20.3424 10.5624L26.0824 18.8959Z" fill="#11121F"/>
<path fill-rule="evenodd" clip-rule="evenodd" d="M27.613 25.0185H9.2452C7.55449 25.0185 6.18389 23.6479 6.18389 21.9572V3.58938C6.18389 1.89867 7.55449 0.528076 9.2452 0.528076H27.613C29.3038 0.528076 30.6744 1.89867 30.6744 3.58938V21.9572C30.6744 23.6479 29.3038 25.0185 27.613 25.0185ZM9.2452 3.58938V21.9572H27.613V3.58938H9.2452Z" fill="#11121F"/>
<path d="M3.12259 9.712H0.0612793V28.0798C0.0612793 29.7706 1.43187 31.1411 3.12259 31.1411H21.4904V28.0798H3.12259V9.712Z" fill="#11121F"/>
</svg>
